<?xml version="1.0" encoding="utf-8"?>
<!-- Generator: Adobe Illustrator 17.0.0, SVG Export Plug-In . SVG Version: 6.00 Build 0)  -->
<!DOCTYPE svg PUBLIC "-//W3C//DTD SVG 1.1//EN" "http://www.w3.org/Graphics/SVG/1.1/DTD/svg11.dtd">
<svg version="1.1" id="Layer_1" xmlns="http://www.w3.org/2000/svg" xmlns:xlink="http://www.w3.org/1999/xlink" x="0px" y="0px"
	 width="34px" height="34px" viewBox="0 0 34 34" enable-background="new 0 0 34 34" xml:space="preserve">
<path id="Close" fill="#010101" d="M33.142,4.464c0.492,0.492,0.492,1.298,0,1.79l-9.864,9.854c-0.492,0.49-0.492,1.298,0,1.792
	l9.859,9.857c0.492,0.492,0.492,1.298,0,1.792l-3.591,3.579c-0.493,0.49-1.301,0.49-1.795,0l-9.856-9.856
	c-0.492-0.492-1.301-0.492-1.793,0l-9.864,9.85c-0.492,0.492-1.301,0.492-1.793,0l-3.587-3.583c-0.492-0.492-0.492-1.298,0-1.792
	l9.867-9.853c0.492-0.49,0.492-1.298,0-1.792L0.866,6.244c-0.493-0.492-0.493-1.3,0-1.792l3.59-3.58
	c0.495-0.49,1.301-0.49,1.795,0.002l9.854,9.854c0.493,0.493,1.301,0.493,1.793,0.002l9.864-9.85c0.49-0.49,1.298-0.49,1.793,0
	L33.142,4.464z"/>
</svg>
