<svg xmlns="http://www.w3.org/2000/svg" width="34" height="34"><path fill="#010101" d="M33.142 4.464a1.27 1.27 0 0 1 0 1.79l-9.864 9.854a1.272 1.272 0 0 0 0 1.792l9.859 9.857a1.272 1.272 0 0 1 0 1.792l-3.591 3.579a1.28 1.28 0 0 1-1.795 0l-9.856-9.856a1.274 1.274 0 0 0-1.793 0l-9.864 9.85a1.274 1.274 0 0 1-1.793 0L.858 29.539a1.272 1.272 0 0 1 0-1.792l9.867-9.853a1.272 1.272 0 0 0 0-1.792L.866 6.244a1.27 1.27 0 0 1 0-1.792l3.59-3.58a1.278 1.278 0 0 1 1.795.002l9.854 9.854a1.274 1.274 0 0 0 1.793.002L27.762.88c.49-.49 1.298-.49 1.793 0l3.587 3.584z"/></svg>